<mxfile host="app.diagrams.net" agent="Mozilla/5.0 (Windows NT 10.0; Win64; x64; rv:131.0) Gecko/20100101 Firefox/131.0" version="24.7.17">
  <diagram name="第 1 页" id="GWENcBLxNjGepDYWQwoa">
    <mxGraphModel dx="1188" dy="746" grid="0" gridSize="10" guides="1" tooltips="1" connect="1" arrows="1" fold="1" page="1" pageScale="1" pageWidth="1169" pageHeight="827" math="0" shadow="0">
      <root>
        <mxCell id="0" />
        <mxCell id="1" parent="0" />
        <mxCell id="I2fkrfDvTkCimYVPOqmN-5" value="" style="edgeStyle=none;rounded=0;orthogonalLoop=1;jettySize=auto;html=1;fontSize=18;labelBackgroundColor=none;strokeColor=#788AA3;fontColor=default;" parent="1" source="I2fkrfDvTkCimYVPOqmN-1" target="I2fkrfDvTkCimYVPOqmN-2" edge="1">
          <mxGeometry relative="1" as="geometry" />
        </mxCell>
        <mxCell id="I2fkrfDvTkCimYVPOqmN-1" value="&lt;font style=&quot;font-size: 18px;&quot;&gt;数据质控分析&lt;/font&gt;" style="whiteSpace=wrap;html=1;fontSize=18;labelBackgroundColor=none;fillColor=#B2C9AB;strokeColor=#788AA3;fontColor=#46495D;" parent="1" vertex="1">
          <mxGeometry x="120" y="165" width="160" height="40" as="geometry" />
        </mxCell>
        <mxCell id="I2fkrfDvTkCimYVPOqmN-7" value="" style="edgeStyle=none;rounded=0;orthogonalLoop=1;jettySize=auto;html=1;fontSize=18;labelBackgroundColor=none;strokeColor=#788AA3;fontColor=default;" parent="1" source="I2fkrfDvTkCimYVPOqmN-2" target="I2fkrfDvTkCimYVPOqmN-3" edge="1">
          <mxGeometry relative="1" as="geometry" />
        </mxCell>
        <mxCell id="I2fkrfDvTkCimYVPOqmN-2" value="蛋白定量分析" style="whiteSpace=wrap;html=1;fontSize=18;labelBackgroundColor=none;fillColor=#B2C9AB;strokeColor=#788AA3;fontColor=#46495D;" parent="1" vertex="1">
          <mxGeometry x="120" y="245" width="160" height="40" as="geometry" />
        </mxCell>
        <mxCell id="I2fkrfDvTkCimYVPOqmN-9" value="" style="edgeStyle=none;rounded=0;orthogonalLoop=1;jettySize=auto;html=1;fontSize=18;labelBackgroundColor=none;strokeColor=#788AA3;fontColor=default;" parent="1" source="I2fkrfDvTkCimYVPOqmN-3" target="I2fkrfDvTkCimYVPOqmN-8" edge="1">
          <mxGeometry relative="1" as="geometry" />
        </mxCell>
        <mxCell id="I2fkrfDvTkCimYVPOqmN-3" value="差异分析" style="whiteSpace=wrap;html=1;fontSize=18;labelBackgroundColor=none;fillColor=#B2C9AB;strokeColor=#788AA3;fontColor=#46495D;" parent="1" vertex="1">
          <mxGeometry x="120" y="325" width="160" height="40" as="geometry" />
        </mxCell>
        <mxCell id="I2fkrfDvTkCimYVPOqmN-14" value="" style="edgeStyle=none;rounded=0;orthogonalLoop=1;jettySize=auto;html=1;fontSize=18;labelBackgroundColor=none;strokeColor=#788AA3;fontColor=default;" parent="1" source="I2fkrfDvTkCimYVPOqmN-8" edge="1">
          <mxGeometry relative="1" as="geometry">
            <mxPoint x="200" y="555" as="targetPoint" />
          </mxGeometry>
        </mxCell>
        <mxCell id="I2fkrfDvTkCimYVPOqmN-17" value="" style="edgeStyle=none;rounded=0;orthogonalLoop=1;jettySize=auto;html=1;fontSize=18;labelBackgroundColor=none;strokeColor=#788AA3;fontColor=default;" parent="1" source="I2fkrfDvTkCimYVPOqmN-8" target="I2fkrfDvTkCimYVPOqmN-10" edge="1">
          <mxGeometry relative="1" as="geometry" />
        </mxCell>
        <mxCell id="I2fkrfDvTkCimYVPOqmN-8" value="差异蛋白" style="rhombus;whiteSpace=wrap;html=1;fontSize=18;labelBackgroundColor=none;fillColor=#B2C9AB;strokeColor=#788AA3;fontColor=#46495D;" parent="1" vertex="1">
          <mxGeometry x="115" y="425" width="170" height="90" as="geometry" />
        </mxCell>
        <mxCell id="I2fkrfDvTkCimYVPOqmN-10" value="出具报告" style="whiteSpace=wrap;html=1;fontSize=18;labelBackgroundColor=none;fillColor=#B2C9AB;strokeColor=#788AA3;fontColor=#46495D;" parent="1" vertex="1">
          <mxGeometry x="370" y="450" width="110" height="40" as="geometry" />
        </mxCell>
        <mxCell id="I2fkrfDvTkCimYVPOqmN-12" value="No" style="text;html=1;align=center;verticalAlign=middle;resizable=0;points=[];autosize=1;strokeColor=none;fillColor=none;fontSize=18;labelBackgroundColor=none;fontColor=#46495D;" parent="1" vertex="1">
          <mxGeometry x="301" y="435" width="41" height="34" as="geometry" />
        </mxCell>
        <mxCell id="I2fkrfDvTkCimYVPOqmN-19" value="" style="edgeStyle=none;rounded=0;orthogonalLoop=1;jettySize=auto;html=1;entryX=0;entryY=0.5;entryDx=0;entryDy=0;entryPerimeter=0;fontSize=18;labelBackgroundColor=none;strokeColor=#788AA3;fontColor=default;" parent="1" source="I2fkrfDvTkCimYVPOqmN-13" target="I2fkrfDvTkCimYVPOqmN-20" edge="1">
          <mxGeometry relative="1" as="geometry">
            <mxPoint x="365" y="600" as="targetPoint" />
          </mxGeometry>
        </mxCell>
        <mxCell id="I2fkrfDvTkCimYVPOqmN-23" value="" style="edgeStyle=none;rounded=0;orthogonalLoop=1;jettySize=auto;html=1;fontSize=18;labelBackgroundColor=none;strokeColor=#788AA3;fontColor=default;" parent="1" source="I2fkrfDvTkCimYVPOqmN-13" target="I2fkrfDvTkCimYVPOqmN-22" edge="1">
          <mxGeometry relative="1" as="geometry" />
        </mxCell>
        <mxCell id="I2fkrfDvTkCimYVPOqmN-13" value="模式生物" style="rhombus;whiteSpace=wrap;html=1;fontSize=18;labelBackgroundColor=none;fillColor=#B2C9AB;strokeColor=#788AA3;fontColor=#46495D;" parent="1" vertex="1">
          <mxGeometry x="115" y="555" width="170" height="90" as="geometry" />
        </mxCell>
        <mxCell id="I2fkrfDvTkCimYVPOqmN-25" value="" style="edgeStyle=none;rounded=0;orthogonalLoop=1;jettySize=auto;html=1;fontSize=18;labelBackgroundColor=none;strokeColor=#788AA3;fontColor=default;" parent="1" source="I2fkrfDvTkCimYVPOqmN-20" target="I2fkrfDvTkCimYVPOqmN-24" edge="1">
          <mxGeometry relative="1" as="geometry" />
        </mxCell>
        <mxCell id="I2fkrfDvTkCimYVPOqmN-20" value="同源序列比对" style="whiteSpace=wrap;html=1;fontSize=18;labelBackgroundColor=none;fillColor=#B2C9AB;strokeColor=#788AA3;fontColor=#46495D;" parent="1" vertex="1">
          <mxGeometry x="370" y="581.25" width="110" height="43.75" as="geometry" />
        </mxCell>
        <mxCell id="I2fkrfDvTkCimYVPOqmN-21" value="No" style="text;strokeColor=none;align=center;fillColor=none;html=1;verticalAlign=middle;whiteSpace=wrap;rounded=0;fontSize=18;labelBackgroundColor=none;fontColor=#46495D;" parent="1" vertex="1">
          <mxGeometry x="290" y="575" width="60" height="30" as="geometry" />
        </mxCell>
        <mxCell id="I2fkrfDvTkCimYVPOqmN-33" value="" style="edgeStyle=none;rounded=0;orthogonalLoop=1;jettySize=auto;html=1;fontSize=18;labelBackgroundColor=none;strokeColor=#788AA3;fontColor=default;" parent="1" edge="1">
          <mxGeometry relative="1" as="geometry">
            <mxPoint x="260" y="714" as="sourcePoint" />
            <mxPoint x="480" y="475" as="targetPoint" />
            <Array as="points">
              <mxPoint x="760" y="714" />
              <mxPoint x="760" y="475" />
            </Array>
          </mxGeometry>
        </mxCell>
        <mxCell id="I2fkrfDvTkCimYVPOqmN-22" value="GO、KEGG、PPI" style="whiteSpace=wrap;html=1;fontSize=18;labelBackgroundColor=none;fillColor=#B2C9AB;strokeColor=#788AA3;fontColor=#46495D;" parent="1" vertex="1">
          <mxGeometry x="116.5" y="695" width="167" height="40" as="geometry" />
        </mxCell>
        <mxCell id="I2fkrfDvTkCimYVPOqmN-31" style="edgeStyle=none;rounded=0;orthogonalLoop=1;jettySize=auto;html=1;fontSize=18;labelBackgroundColor=none;strokeColor=#788AA3;fontColor=default;" parent="1" source="I2fkrfDvTkCimYVPOqmN-24" edge="1">
          <mxGeometry relative="1" as="geometry">
            <mxPoint x="760" y="603" as="targetPoint" />
          </mxGeometry>
        </mxCell>
        <mxCell id="I2fkrfDvTkCimYVPOqmN-24" value="功能注释富集" style="whiteSpace=wrap;html=1;fontSize=18;labelBackgroundColor=none;fillColor=#B2C9AB;strokeColor=#788AA3;fontColor=#46495D;" parent="1" vertex="1">
          <mxGeometry x="560" y="584.69" width="120" height="36.88" as="geometry" />
        </mxCell>
        <mxCell id="I2fkrfDvTkCimYVPOqmN-26" value="Yes" style="text;strokeColor=none;align=center;fillColor=none;html=1;verticalAlign=middle;whiteSpace=wrap;rounded=0;fontSize=18;labelBackgroundColor=none;fontColor=#46495D;" parent="1" vertex="1">
          <mxGeometry x="190" y="655" width="60" height="30" as="geometry" />
        </mxCell>
        <mxCell id="I2fkrfDvTkCimYVPOqmN-34" value="Yes" style="text;strokeColor=none;align=center;fillColor=none;html=1;verticalAlign=middle;whiteSpace=wrap;rounded=0;fontColor=#46495D;fontSize=17;labelBackgroundColor=none;" parent="1" vertex="1">
          <mxGeometry x="196" y="519" width="60" height="30" as="geometry" />
        </mxCell>
        <mxCell id="I2fkrfDvTkCimYVPOqmN-62" value="" style="edgeStyle=orthogonalEdgeStyle;rounded=0;orthogonalLoop=1;jettySize=auto;html=1;strokeColor=#788AA3;fontColor=default;fillColor=#B2C9AB;fontSize=19;labelBackgroundColor=none;" parent="1" source="I2fkrfDvTkCimYVPOqmN-40" target="I2fkrfDvTkCimYVPOqmN-44" edge="1">
          <mxGeometry relative="1" as="geometry" />
        </mxCell>
        <mxCell id="I2fkrfDvTkCimYVPOqmN-65" value="" style="edgeStyle=orthogonalEdgeStyle;rounded=0;orthogonalLoop=1;jettySize=auto;html=1;strokeColor=#788AA3;fontColor=default;fillColor=#B2C9AB;fontSize=19;labelBackgroundColor=none;" parent="1" source="I2fkrfDvTkCimYVPOqmN-40" target="I2fkrfDvTkCimYVPOqmN-41" edge="1">
          <mxGeometry relative="1" as="geometry" />
        </mxCell>
        <mxCell id="I2fkrfDvTkCimYVPOqmN-40" value="模式生物" style="rhombus;whiteSpace=wrap;html=1;fontSize=19;labelBackgroundColor=none;fillColor=#B2C9AB;strokeColor=#788AA3;fontColor=#46495D;" parent="1" vertex="1">
          <mxGeometry x="123.5" y="1112" width="170" height="90" as="geometry" />
        </mxCell>
        <mxCell id="I2fkrfDvTkCimYVPOqmN-50" value="" style="edgeStyle=orthogonalEdgeStyle;rounded=0;orthogonalLoop=1;jettySize=auto;html=1;strokeColor=#788AA3;fontColor=default;fillColor=#B2C9AB;fontSize=19;labelBackgroundColor=none;" parent="1" edge="1">
          <mxGeometry relative="1" as="geometry">
            <mxPoint x="486" y="1154.9785714285715" as="sourcePoint" />
            <mxPoint x="566" y="1154.9214285714286" as="targetPoint" />
          </mxGeometry>
        </mxCell>
        <mxCell id="I2fkrfDvTkCimYVPOqmN-41" value="同源序列比对" style="whiteSpace=wrap;html=1;fontSize=19;labelBackgroundColor=none;fillColor=#B2C9AB;strokeColor=#788AA3;fontColor=#46495D;" parent="1" vertex="1">
          <mxGeometry x="376" y="1136" width="110" height="43.75" as="geometry" />
        </mxCell>
        <mxCell id="I2fkrfDvTkCimYVPOqmN-44" value="GO、KEGG、PPI" style="whiteSpace=wrap;html=1;fontSize=19;labelBackgroundColor=none;fillColor=#B2C9AB;strokeColor=#788AA3;fontColor=#46495D;" parent="1" vertex="1">
          <mxGeometry x="125" y="1253" width="167" height="40" as="geometry" />
        </mxCell>
        <mxCell id="I2fkrfDvTkCimYVPOqmN-45" value="功能注释富集" style="whiteSpace=wrap;html=1;fontSize=19;labelBackgroundColor=none;fillColor=#B2C9AB;strokeColor=#788AA3;fontColor=#46495D;" parent="1" vertex="1">
          <mxGeometry x="566" y="1136.44" width="120" height="36.88" as="geometry" />
        </mxCell>
        <mxCell id="I2fkrfDvTkCimYVPOqmN-61" value="" style="edgeStyle=orthogonalEdgeStyle;rounded=0;orthogonalLoop=1;jettySize=auto;html=1;strokeColor=#788AA3;fontColor=default;fillColor=#B2C9AB;fontSize=19;labelBackgroundColor=none;" parent="1" source="I2fkrfDvTkCimYVPOqmN-46" target="I2fkrfDvTkCimYVPOqmN-40" edge="1">
          <mxGeometry relative="1" as="geometry" />
        </mxCell>
        <mxCell id="I2fkrfDvTkCimYVPOqmN-46" value="差异蛋白" style="whiteSpace=wrap;html=1;fontSize=19;labelBackgroundColor=none;fillColor=#B2C9AB;strokeColor=#788AA3;fontColor=#46495D;" parent="1" vertex="1">
          <mxGeometry x="125" y="1011" width="167" height="40" as="geometry" />
        </mxCell>
        <mxCell id="I2fkrfDvTkCimYVPOqmN-66" value="No" style="text;strokeColor=none;align=center;fillColor=none;html=1;verticalAlign=middle;whiteSpace=wrap;rounded=0;fontColor=#46495D;fontSize=19;labelBackgroundColor=none;" parent="1" vertex="1">
          <mxGeometry x="305" y="1126" width="60" height="30" as="geometry" />
        </mxCell>
        <mxCell id="I2fkrfDvTkCimYVPOqmN-67" value="Yes" style="text;strokeColor=none;align=center;fillColor=none;html=1;verticalAlign=middle;whiteSpace=wrap;rounded=0;fontColor=#46495D;fontSize=19;labelBackgroundColor=none;" parent="1" vertex="1">
          <mxGeometry x="202" y="1216" width="60" height="30" as="geometry" />
        </mxCell>
        <mxCell id="pitsX1S76VtzRZdV6PsT-1" value="搜库分析" style="whiteSpace=wrap;html=1;fontSize=18;labelBackgroundColor=none;fillColor=#B2C9AB;strokeColor=#788AA3;fontColor=#46495D;" vertex="1" parent="1">
          <mxGeometry x="116.5" y="85" width="160" height="40" as="geometry" />
        </mxCell>
        <mxCell id="pitsX1S76VtzRZdV6PsT-2" value="" style="edgeStyle=none;rounded=0;orthogonalLoop=1;jettySize=auto;html=1;fontSize=18;labelBackgroundColor=none;strokeColor=#788AA3;fontColor=default;" edge="1" parent="1">
          <mxGeometry relative="1" as="geometry">
            <mxPoint x="199.5" y="125" as="sourcePoint" />
            <mxPoint x="199.5" y="165" as="targetPoint" />
          </mxGeometry>
        </mxCell>
      </root>
    </mxGraphModel>
  </diagram>
</mxfile>
